<svg id="Слой_1" data-name="Слой 1" xmlns="http://www.w3.org/2000/svg" width="412" height="412" viewBox="0 0 412 412">
  <title>menu</title>
  <rect x="-33" width="461" height="332" style="fill: #e4f5f2"/>
  <path d="M56.86,375.43c-208.7-14.91-244.21,161.43-218.81,42S-184.1,175.15-184.1,175.15L26.78,155.88l218.78-20,309.37-28.27,7.47,81.72,7.49,81.94s-31.44,3.62,7.19,78.66-113.92-11.63-201-3.67S265.55,390.34,56.86,375.43Z" style="fill: #dcefec"/>
  <path d="M51.19,354.68c-207.45-27.25-253.34,146.68-220.92,29s-7.75-243.21-7.75-243.21l211.66-6.75,219.58-7,310.5-9.9,2.61,82,2.62,82.23s-31.6,1.75,2.52,79-113-18.36-200.46-15.58S258.64,381.93,51.19,354.68Z" style="fill: #e4f5f2"/>
</svg>
